<!--<?xml version="1.0" encoding="iso-8859-1"?>-->
<svg version="1.1" id="rm-shopping-cart" xmlns="http://www.w3.org/2000/svg" xmlns:xlink="http://www.w3.org/1999/xlink" x="0px" y="0px"
	 viewBox="0 0 511.999 511.999" style="enable-background:new 0 0 511.999 511.999;" xml:space="preserve">
<path style="fill:#FFFFFF;" d="M240.985,258.057c-19.968,19.968-52.394,19.968-72.361,0s-19.968-52.394,0-72.361
	c9.984-9.984,23.04-15.018,36.181-15.018c13.141,0,26.197,5.035,36.181,15.018C260.953,205.663,260.953,238.089,240.985,258.057z"/>
<path d="M228.979,213.343H177.78c-4.71,0-8.533,3.823-8.533,8.533c0,4.71,3.823,8.533,8.533,8.533h51.199
	c4.71,0,8.533-3.823,8.533-8.533C237.512,217.166,233.689,213.343,228.979,213.343z"/>
<g>
	<path style="fill:#BDBDBD;" d="M196.271,128.011v26.197c-8.448,1.109-16.725,3.755-24.405,7.936h-60.415l-7.083-34.133
		C104.369,128.011,196.271,128.011,196.271,128.011z"/>
	<polygon style="fill:#BDBDBD;" points="94.043,162.144 26.119,162.144 19.037,128.011 86.961,128.011 	"/>
	<polygon style="fill:#BDBDBD;" points="104.71,213.343 36.786,213.343 29.703,179.21 97.627,179.21 	"/>
	<path style="fill:#BDBDBD;" d="M151.557,179.21c-8.107,10.069-12.885,21.93-14.421,34.133h-15.018l-7.083-34.133H151.557z"/>
	<path style="fill:#BDBDBD;" d="M151.557,264.542h-18.773l-7.083-34.133h11.434C138.672,242.612,143.451,254.473,151.557,264.542z"
		/>
	<polygon style="fill:#BDBDBD;" points="115.376,264.542 47.452,264.542 40.37,230.409 108.294,230.409 	"/>
	<polygon style="fill:#BDBDBD;" points="126.043,315.741 58.119,315.741 51.036,281.608 118.96,281.608 	"/>
	<path style="fill:#BDBDBD;" d="M196.271,289.544v26.197h-52.82l-7.083-34.133h34.303v-0.683
		C178.693,285.534,187.396,288.435,196.271,289.544z"/>
	<path style="fill:#BDBDBD;" d="M273.24,281.608l-7.083,34.133h-52.82v-26.197c8.875-1.109,17.578-4.011,25.6-8.619v0.683H273.24
		L273.24,281.608z"/>
	<polygon style="fill:#BDBDBD;" points="361.559,281.608 351.916,315.741 283.566,315.741 290.648,281.608 	"/>
	<polygon style="fill:#BDBDBD;" points="375.895,230.409 366.337,264.542 294.232,264.542 301.315,230.409 	"/>
	<path style="fill:#BDBDBD;" d="M283.907,230.409l-7.083,34.133h-18.773c8.107-10.069,12.885-21.93,14.421-34.133H283.907z"/>
	<path style="fill:#BDBDBD;" d="M305.24,128.011l-7.083,34.133h-60.415c-7.68-4.181-15.957-6.827-24.405-7.936v-26.197
		C213.337,128.011,305.24,128.011,305.24,128.011z"/>
	<path style="fill:#BDBDBD;" d="M294.573,179.21l-7.083,34.133h-15.018c-1.536-12.202-6.315-24.064-14.421-34.133H294.573z"/>
	<polygon style="fill:#BDBDBD;" points="390.316,179.21 380.759,213.343 304.899,213.343 311.981,179.21 	"/>
	<polygon style="fill:#BDBDBD;" points="404.737,128.011 395.094,162.144 315.565,162.144 322.648,128.011 	"/>
</g>
<path d="M469.333,401.073c-8.107,0-15.616,2.389-22.101,6.315l-79.359-85.417l74.239-263.676l63.402-15.872
	c4.608-1.109,7.339-5.803,6.229-10.325c-1.109-4.608-5.803-7.424-10.325-6.229l-68.266,17.066c-2.987,0.768-5.376,2.987-6.144,5.973
	l-17.493,62.036H8.541c-2.56,0-5.035,1.195-6.656,3.157s-2.219,4.608-1.707,7.083l42.666,204.797
	c0.853,4.011,4.352,6.827,8.363,6.827h303.44l39.679,42.666H59.74c-3.84,0-7.168,2.56-8.192,6.229l-5.632,19.712
	c-1.109-0.085-2.133-0.341-3.243-0.341c-23.552,0-42.666,19.114-42.666,42.666c0,23.552,19.114,42.666,42.666,42.666
	s42.666-19.114,42.666-42.666c0-16.384-9.387-30.549-23.04-37.631l3.84-13.568h343.461c0.171,0,0.341-0.085,0.427-0.085
	l24.661,26.538c-4.949,6.997-8.021,15.53-8.021,24.746c0,23.552,19.114,42.666,42.666,42.666c23.552,0,42.666-19.114,42.666-42.666
	S492.885,401.073,469.333,401.073z M322.648,128.011h82.089l-9.642,34.133h-79.529L322.648,128.011z M390.316,179.21l-9.557,34.133
	h-75.86l7.083-34.133H390.316z M213.337,128.011h91.902l-7.083,34.133h-60.415c-7.68-4.181-15.957-6.827-24.405-7.936
	L213.337,128.011L213.337,128.011z M294.573,179.21l-7.083,34.133h-15.018c-1.536-12.202-6.315-24.064-14.421-34.133H294.573z
	 M196.271,128.011v26.197c-8.448,1.109-16.725,3.755-24.405,7.936h-60.415l-7.083-34.133
	C104.369,128.011,196.271,128.011,196.271,128.011z M151.557,179.21c-8.107,10.069-12.885,21.93-14.421,34.133h-15.018
	l-7.083-34.133H151.557z M19.037,128.011h67.924l7.083,34.133H26.119L19.037,128.011z M29.703,179.21h67.924l7.083,34.133H36.786
	L29.703,179.21z M40.37,230.409h67.924l7.083,34.133H47.452L40.37,230.409z M58.119,315.741l-7.083-34.133h67.924l7.083,34.133
	H58.119z M125.702,230.409h11.434c1.536,12.202,6.315,24.064,14.421,34.133h-18.773L125.702,230.409z M196.271,315.741h-52.82
	l-7.083-34.133h34.303v-0.683c8.021,4.608,16.725,7.509,25.6,8.619V315.741z M168.623,258.057
	c-19.968-19.968-19.968-52.394,0-72.361c9.984-9.984,23.04-15.018,36.181-15.018s26.197,5.035,36.181,15.018
	c19.968,19.968,19.968,52.394,0,72.361S188.591,278.025,168.623,258.057z M266.158,315.741h-52.82v-26.197
	c8.875-1.109,17.578-4.011,25.6-8.619v0.683h34.303L266.158,315.741z M258.051,264.542c8.107-10.069,12.885-21.93,14.421-34.133
	h11.434l-7.083,34.133H258.051z M351.916,315.741h-68.351l7.083-34.133h70.911L351.916,315.741z M294.232,264.542l7.083-34.133
	h74.58l-9.557,34.133H294.232z M68.273,443.739c0,14.08-11.52,25.6-25.6,25.6s-25.6-11.52-25.6-25.6
	c0-13.568,10.666-24.576,23.978-25.429l-6.571,23.125c-1.28,4.523,1.28,9.216,5.888,10.496c0.768,0.256,1.536,0.341,2.304,0.341
	c3.755,0,7.168-2.475,8.192-6.229l6.656-23.125C64.007,427.611,68.273,435.121,68.273,443.739z M469.333,469.339
	c-14.08,0-25.6-11.52-25.6-25.6c0-4.267,1.109-8.277,2.987-11.776l16.384,17.578c1.621,1.792,3.925,2.731,6.229,2.731
	c2.048,0,4.181-0.768,5.803-2.304c3.413-3.157,3.669-8.618,0.427-12.032l-16.384-17.664c3.157-1.365,6.571-2.133,10.154-2.133
	c14.08,0,25.6,11.52,25.6,25.6C494.933,457.819,483.413,469.339,469.333,469.339z"/>
<g>
	<path style="fill:#717272;" d="M68.273,443.739c0,14.08-11.52,25.6-25.6,25.6s-25.6-11.52-25.6-25.6
		c0-13.568,10.666-24.576,23.978-25.429l-6.571,23.125c-1.28,4.523,1.28,9.216,5.888,10.496c0.768,0.256,1.536,0.341,2.304,0.341
		c3.755,0,7.168-2.475,8.192-6.229l6.656-23.125C64.007,427.611,68.273,435.121,68.273,443.739z"/>
	<path style="fill:#717272;" d="M494.933,443.739c0,14.08-11.52,25.6-25.6,25.6c-14.08,0-25.6-11.52-25.6-25.6
		c0-4.267,1.109-8.277,2.987-11.776l16.384,17.578c1.621,1.792,3.925,2.731,6.229,2.731c2.048,0,4.181-0.768,5.803-2.304
		c3.413-3.157,3.669-8.618,0.427-12.032l-16.384-17.664c3.157-1.365,6.571-2.133,10.154-2.133
		C483.413,418.139,494.933,429.659,494.933,443.739z"/>
</g>
<g>
	<polygon style="fill:#90A4AE;" points="55.576,303.479 58.119,315.741 126.043,315.741 123.5,303.479 	"/>
	<polygon style="fill:#90A4AE;" points="140.908,303.479 143.451,315.741 196.271,315.741 196.271,303.479 	"/>
	<polygon style="fill:#90A4AE;" points="213.337,303.479 213.337,315.741 266.158,315.741 268.701,303.479 	"/>
	<polygon style="fill:#90A4AE;" points="339.714,303.479 286.108,303.479 283.566,315.741 351.916,315.741 361.559,281.608 
		345.858,281.608 	"/>
	<polygon style="fill:#90A4AE;" points="360.296,230.409 350.679,264.542 366.337,264.542 375.895,230.409 	"/>
	<polygon style="fill:#90A4AE;" points="374.674,179.21 365.117,213.343 380.759,213.343 390.316,179.21 	"/>
	<polygon style="fill:#90A4AE;" points="389.07,128.011 379.427,162.144 395.094,162.144 404.737,128.011 	"/>
</g>
<g>
	<path style="fill:#555656;" d="M57.914,423.285c1.894,3.55,2.978,7.595,2.978,11.929c0,14.08-11.52,25.6-25.6,25.6
		c-5.632,0-10.812-1.903-15.053-5.018c4.335,8.013,12.723,13.551,22.434,13.551c14.08,0,25.6-11.52,25.6-25.6
		C68.273,435.317,64.16,427.995,57.914,423.285z"/>
	<path style="fill:#555656;" d="M484.386,423.157c1.954,3.61,3.166,7.671,3.166,12.049c0,14.08-11.52,25.6-25.6,25.6
		c-5.632,0-10.812-1.903-15.053-5.018c4.335,8.013,12.723,13.551,22.434,13.551c14.08,0,25.6-11.52,25.6-25.6
		C494.933,435.291,490.743,427.825,484.386,423.157z"/>
</g>
<path style="fill:#F4F4F4;" d="M240.985,185.695c-3.268-3.268-6.955-5.811-10.777-8.021c19.49,20.002,19.387,52.035-0.418,71.841
	c-16.708,16.708-42.052,19.234-61.61,7.987c0.171,0.171,0.273,0.375,0.444,0.546c19.968,19.968,52.394,19.968,72.361,0
	C260.953,238.089,260.953,205.663,240.985,185.695z"/>
</svg>
